<?xml version="1.0" encoding="UTF-8"?>
<svg xmlns="http://www.w3.org/2000/svg" xmlns:xlink="http://www.w3.org/1999/xlink" version="1.1" width="512" height="512" x="0" y="0" viewBox="0 0 90 90" style="enable-background:new 0 0 512 512" xml:space="preserve" class="">
  <g>
    <path d="M39.609 13.08a26.377 26.377 0 0 1 18.714 7.771c10.364 10.363 10.364 27.072 0 37.438-10.364 10.363-27.073 10.363-37.438 0-10.359-10.365-10.359-27.068.005-37.432h.006a26.382 26.382 0 0 1 18.713-7.777zm0-6.463c-8.447 0-16.896 3.213-23.317 9.635v.004c-12.849 12.85-12.844 33.777 0 46.621 12.073 12.074 31.281 12.803 44.214 2.188l17.255 17.25a3.25 3.25 0 1 0 4.589-4.6L65.104 60.467c10.614-12.934 9.891-32.143-2.183-44.215-6.426-6.428-14.868-9.635-23.312-9.635z" fill="#ff06c8" opacity="1" data-original="#000000" class=""/>
  </g>
</svg>
